<svg width="32" height="32" viewBox="0 0 32 32" fill="none" xmlns="http://www.w3.org/2000/svg">
<path fill-rule="evenodd" clip-rule="evenodd" d="M3 3H4V20H3V3ZM4 4H5V5H4V4ZM6 5H5V6H6V5ZM6 6H7V7H6V6ZM8 7H7V8H8V7ZM8 8H9V9H8V8ZM10 9H9V10H10V9ZM10 10H11V11H10V10ZM12 11H11V12H12V11ZM12 12H13V13H12V12ZM14 13H13V14H14V13ZM7 16H8V17H7V16ZM7 17H6V18H7V17ZM5 18H6V19H5V18ZM5 19L5 20H4V19L5 19ZM14 14H15V15L15 16L11 16V17H10V16V15L14 15V14ZM12 21V22H10V21H12ZM12 17H11V19H12V17ZM12 19H13V21H12V19ZM10 19H9V21H10V19ZM8 17H9V19H8V17Z" fill="#F5BF16"/>
<path fill-rule="evenodd" clip-rule="evenodd" d="M5 5H4V19H5L5 18H6V6H5V5ZM6 7H7V17H6V7ZM8 8H7V16H8L8 17H9V9H8V8ZM10 10H9V19H10V10ZM10 11H11V12H12V15L11 15H10V11ZM12 19H11L11 17H10V21L11 21H12V19ZM12 13H13V15H12V13ZM14 14H13V15H14V14Z" fill="#264653"/>
<rect x="13" y="16" width="9" height="9" fill="#264653"/>
<rect x="13.5" y="16.5" width="8" height="8" stroke="#F5BF16"/>
<path fill-rule="evenodd" clip-rule="evenodd" d="M18 18H17V20H15V21H17V23H18V21H20V20H18V18Z" fill="#F5BF16"/>
</svg>
