<svg xmlns="http://www.w3.org/2000/svg" viewBox="0 0 163.45 183.43"><path d="M120.13,149.16c25.12,0,43.32-19,43.32-19L163.2,165s-16.28,18.41-43.36,18.41c-32.11,0-44.36-19-73.38-19S0,182.78,0,182.78V148.36s16.32-18.23,46.46-18.23C75.49,130.13,94.46,149.16,120.13,149.16ZM46.46,65.08C16.32,65.08,0,83.3,0,83.3v34.43S17.44,99.4,46.46,99.4s41.27,19,73.38,19c27.08,0,43.36-18.4,43.36-18.4l.25-34.92s-18.2,19.06-43.32,19.06C94.46,84.11,75.49,65.08,46.46,65.08ZM46.46,0C16.32,0,0,18.25,0,18.25V52.67S17.44,34.35,46.46,34.35s41.27,19,73.38,19c27.08,0,43.36-18.4,43.36-18.4L163.45,0s-18.2,19.05-43.32,19.05C94.46,19.05,75.49,0,46.46,0Z" fill="#f5bf16"/></svg>