<svg xmlns="http://www.w3.org/2000/svg" viewBox="0 0 115.69 124" width="53px" height="57px"><path d="M107.55,94.41q-21.51,10.73-43,21.41c-1.83-3.55-3.54-7.17-5.36-10.72-1.84.83-3.64,1.73-5.42,2.63C52,104.17,50.23,100.56,48.4,97c-1.77.87-3.84,1.77-5.53,2.78C41.46,96,39.4,92.54,37.63,88.94q-2.68,1.29-5.33,2.64C30.49,88,28.75,84.4,26.92,80.84c-1.82.87-3.6,1.77-5.41,2.66q-1.32-2.73-2.71-5.38c-1.71.79-3.67,1.77-5.39,2.66C11.88,77.1,9.79,73.7,8.15,70.09c3.55-1.81,7.16-3.54,10.69-5.4.84,1.84,1.75,3.64,2.71,5.42,1.78-.89,3.56-1.79,5.39-2.61.86,1.77,1.75,3.55,2.66,5.29q2.73-1.28,5.4-2.69Q20.26,40.45,5.46,10.84C9,9,12.76,7.33,16.29,5.55Q28.31,29.78,40.37,54q2.75-1.29,5.4-2.71c-3.54-7.19-7.18-14.33-10.72-21.52,3.59-1.84,7.2-3.63,10.8-5.41q5.25,10.83,10.7,21.57c1.8-.86,3.57-1.74,5.35-2.67-2.62-5.41-5.37-10.77-8-16.15,3.59-1.81,7.19-3.62,10.8-5.4,3.63,7.17,7.09,14.43,10.79,21.56,1.75-.88,3.52-1.76,5.27-2.65-2.57-5.44-5.36-10.78-8-16.19a31.57,31.57,0,0,1,5.41-2.51c1,1.66,1.77,3.48,2.75,5.18,1.76-.9,3.54-1.79,5.32-2.65L105,62.12c-1.77.91-3.56,1.79-5.33,2.66,2.64,5.44,5.24,10.9,8.13,16.2-1.88.81-3.7,1.74-5.53,2.69C104,87.26,105.82,90.81,107.55,94.41Z" fill="#264653"/><path d="M8.15,70.09c3.55-1.81,7.16-3.54,10.69-5.4-.83-1.81-1.76-3.57-2.68-5.35C10.75,62,5.34,64.65,0,67.42c2.68,5.37,5.33,10.74,8,16.1a46.42,46.42,0,0,0,5.23-2.62v0l.18-.09C11.88,77.1,9.79,73.7,8.15,70.09ZM37.63,88.94q-2.68,1.29-5.33,2.64C30.49,88,28.75,84.4,26.92,80.84c-1.82.87-3.6,1.77-5.41,2.66q-1.32-2.73-2.71-5.38c-1.71.79-3.67,1.77-5.39,2.66h0l-.18.11c.89,1.84,2,3.63,2.9,5.4,1.75-.76,3.49-1.59,5.22-2.46,2.07,3.37,3.66,7,5.49,10.5,1.81-.81,3.6-1.67,5.39-2.53,1.79,3.53,3.56,7.09,5.39,10.61a55.73,55.73,0,0,0,5.24-2.63C41.46,96,39.4,92.54,37.63,88.94ZM5.46,10.84c-1.76,1-3.54,1.85-5.33,2.75,8,16.16,16,32.24,24,48.36-1.77.91-3.58,1.79-5.33,2.74.84,1.84,1.75,3.64,2.71,5.42,1.78-.89,3.56-1.79,5.39-2.61.86,1.77,1.75,3.55,2.66,5.29q2.73-1.28,5.4-2.69Q20.26,40.45,5.46,10.84ZM13.75,0C10.22,1.77,6.37,3.7,2.82,5.45,3.68,7.25,4.57,9,5.46,10.84,9,9,12.76,7.33,16.29,5.55l.18-.1C15.62,3.67,14.75,2,13.75,0Zm94,81c-1.88.81-3.7,1.74-5.53,2.69,1.75,3.59,3.6,7.14,5.33,10.74q-21.51,10.73-43,21.41c-1.83-3.55-3.54-7.17-5.36-10.72-1.84.83-3.64,1.73-5.42,2.63C52,104.17,50.23,100.56,48.4,97c-1.77.87-3.84,1.77-5.53,2.78,1.42,3.75,3.76,7.12,5.52,10.72,1.77-.84,3.53-1.68,5.29-2.56,2.75,5.33,5.39,10.71,8.13,16,8.94-4.3,17.82-8.71,26.69-13.15,9.09-4.53,18.21-9,27.19-13.73C112.87,91.83,110.72,86.2,107.75,81Zm-2.59-18.64a44.55,44.55,0,0,1,5.21-2.85c-2.81-5.73-5.77-11.4-8.44-17.2C98.31,35.51,95,28.58,91.52,21.75c-1.75.9-3.53,1.76-5.3,2.61-.91-1.73-1.8-3.47-2.64-5.22C81.78,20,80,21,78.19,21.68c-1.08-1.69-1.86-3.54-2.78-5.31-3.58,1.76-7.13,3.58-10.74,5.29-.91-1.72-1.78-3.46-2.63-5.21-5.5,2.39-10.77,5.28-16.18,7.87-1-1.73-1.88-3.51-2.76-5.29C39.52,20.78,36,22.61,32.37,24.3,28.74,17.2,25.22,10,21.64,2.89Q19,4.14,16.47,5.45l-.18.1Q28.31,29.78,40.37,54q2.75-1.29,5.4-2.71c-3.54-7.19-7.18-14.33-10.72-21.52,3.59-1.84,7.2-3.63,10.8-5.41q5.25,10.83,10.7,21.57c1.8-.86,3.57-1.74,5.35-2.67-2.62-5.41-5.37-10.77-8-16.15,3.59-1.81,7.19-3.62,10.8-5.4,3.63,7.17,7.09,14.43,10.79,21.56,1.75-.88,3.52-1.76,5.27-2.65-2.57-5.44-5.36-10.78-8-16.19a31.57,31.57,0,0,1,5.41-2.51c1,1.66,1.77,3.48,2.75,5.18,1.76-.9,3.54-1.79,5.32-2.65L105,62.12c-1.77.91-3.56,1.79-5.33,2.66,2.64,5.44,5.24,10.9,8.13,16.2,1.81-.8,3.55-1.74,5.28-2.67C110.45,73,107.8,67.65,105.16,62.34Z" fill="#f5bf16"/></svg>