<svg xmlns="http://www.w3.org/2000/svg" xmlns:xlink="http://www.w3.org/1999/xlink" viewBox="0 0 163.45 183.43"><defs><clipPath id="a" transform="translate(-10.18 -0.19)"><rect width="183.8" height="183.8" fill="none"/></clipPath></defs><g clip-path="url(#a)"><path d="M130.3,149.35c25.12,0,43.33-19,43.33-19l-.25,34.91s-16.28,18.4-43.37,18.4c-32.1,0-44.36-19-73.37-19S10.18,183,10.18,183V148.54s16.31-18.22,46.46-18.22C85.67,130.32,104.63,149.35,130.3,149.35ZM56.64,65.26c-30.15,0-46.46,18.23-46.46,18.23v34.43S27.62,99.59,56.64,99.59s41.27,19,73.37,19c27.09,0,43.37-18.4,43.37-18.4l.25-34.92S155.42,84.3,130.3,84.3C104.63,84.3,85.67,65.26,56.64,65.26Zm0-65.05C26.49.21,10.18,18.44,10.18,18.44V52.86S27.62,34.54,56.64,34.54s41.27,19,73.37,19c27.09,0,43.37-18.41,43.37-18.41L173.63.19s-18.21,19-43.33,19C104.63,19.24,85.67.21,56.64.21Z" transform="translate(-10.18 -0.19)" fill="#f5bf16"/></g></svg>